<?xml version="1.0" encoding="UTF-8"?>
<svg id="Warstwa_1" data-name="Warstwa 1" xmlns="http://www.w3.org/2000/svg" viewBox="0 0 108.37 108.37">
  <defs>
    <style>
      .cls-1 {
        fill: #fff;
      }
    </style>
  </defs>
  <rect class="cls-1" width="108.37" height="108.37"/>
  <g>
    <path d="M.34,1.07C.04,1.77-.06,26.17,.04,55.37l.3,53H108.34V.37L54.54,.07C12.04-.13,.64,.07,.34,1.07ZM96.84,54.37v42.5H11.84V11.87H96.84V54.37Z"/>
    <path d="M46.84,23.77c-5,1.5-8.9,4.2-11.7,7.7-3.8,5.1-4.6,15.6-1.4,20.7,2.5,4.1,9.5,8,18.2,10.2,9.3,2.3,12.9,4.7,12.9,8.4,0,9.4-18.1,9.5-22,.2-.7-1.8-1.8-3-2.4-2.8-.6,.3-3.7,1-6.9,1.7l-5.7,1.1,1.5,3.7c7.4,18.1,40.7,19.1,49,1.5,2.1-4.5,2.2-12,.2-15.9-3.1-6-7-8.5-18.9-12-11.1-3.3-13.8-5-13.8-8.6,0-7.3,15.2-7.7,19.2-.5l1.3,2.3,6.2-1.9,6.3-1.9-1.6-3c-2.5-4.7-7.4-8.7-12.8-10.3-5.3-1.6-13.4-1.8-17.6-.6h0Z"/>
  </g>
</svg>